# xmcd
#
# Track frame offsets:
#       150
#       14226
#       30292
#       42535
#       58897
#       74137
#       92800
#       108626
#       120425
#       143727
#       163658
#       178270
#       201287
#       211511
#       231503
#
# Disc length: 3342 seconds
#
# Revision: 0
# Processed by: cddbd v1.5.1PL0 Copyright (c) Steve Scherf et al.
# Submitted via: CD-DA_X-Tractor v0.21
#
DISCID=e40d0c0f
DTITLE=Jeannie Druck Riebling - Free
DYEAR=1900
DGENRE=
TTITLE0=First Train Out
TTITLE1=Second Chances
TTITLE2=I'll Never Know
TTITLE3=The Best Thing She Can Do
TTITLE4=Home
TTITLE5=Running Woman
TTITLE6=The Love She Deserves
TTITLE7=Out Of My Past (And on To You)
TTITLE8=Crazier Than Me
TTITLE9=Your Love Stays With Me
TTITLE10=The Hands Of Time
TTITLE11=Sometime Now
TTITLE12=Straight On Back (To You)
TTITLE13=Tender And Wild
TTITLE14=Wretched Outcast
EXTD=
EXTT0=
EXTT1=
EXTT2=
EXTT3=
EXTT4=
EXTT5=
EXTT6=
EXTT7=
EXTT8=
EXTT9=
EXTT10=
EXTT11=
EXTT12=
EXTT13=
EXTT14=
PLAYORDER=
